# xmcd
#
# Track frame offsets: 
#        150
#        13690
#        28990
#        52150
#        71107
#        88282
#        104117
#        108182
#        124467
#        141810
#        158687
#        171357
#        194267
#        197580
#        213072
#        227757
#
# Disc length: 3266 seconds
#
# Revision: 3
# Processed by: cddbd v1.5.2PL0 Copyright (c) Steve Scherf et al.
# Submitted via: ExactAudioCopy v0.95b3
#
DISCID=ef0cc010
DTITLE=Lynn August - Creole Cruiser
DYEAR=1992
DGENRE=Zydeco
TTITLE0=Why You Want To Hurt A Man Like Me?
TTITLE1=Don't You Know I Love You?
TTITLE2='58 Pink Cadillac
TTITLE3=Blind Man
TTITLE4=Bernadette
TTITLE5=That Train Is Gone
TTITLE6=Jure' #1
TTITLE7=Undivided Love
TTITLE8=When I Woke Up This Morning
TTITLE9=Tanten Nana
TTITLE10=Josephine C'est Pas Ma Femme
TTITLE11=Losing Hand
TTITLE12=Jure' #2
TTITLE13=The Creole Song
TTITLE14=Trying My Best Not To Never Do Wrong
TTITLE15=Hippi Ty O
EXTD=
EXTT0=
EXTT1=
EXTT2=
EXTT3=
EXTT4=
EXTT5=
EXTT6=
EXTT7=
EXTT8=
EXTT9=
EXTT10=
EXTT11=
EXTT12=
EXTT13=
EXTT14=
EXTT15=
PLAYORDER=
